<svg version="1.1" id="Layer_1" xmlns="http://www.w3.org/2000/svg" xmlns:xlink="http://www.w3.org/1999/xlink" x="0px" y="0px"
	 width="100%" viewBox="0 0 500 500" enable-background="new 0 0 500 500" xml:space="preserve">
<path fill="#ffffff" opacity="1.000000" stroke="none" 
	d="
M242.000000,501.000000 
	C161.333359,501.000000 81.166702,501.000000 1.000043,501.000000 
	C1.000029,334.333405 1.000029,167.666779 1.000014,1.000133 
	C167.666565,1.000088 334.333130,1.000088 500.999756,1.000044 
	C500.999847,167.666519 500.999847,334.333038 500.999939,500.999786 
	C414.833344,501.000000 328.666656,501.000000 242.000000,501.000000 
M311.920013,347.119202 
	C314.744446,347.117706 317.569061,347.092285 320.393250,347.118927 
	C332.464325,347.232910 343.442230,343.690002 352.496460,335.819916 
	C359.852203,329.426178 366.363770,322.061249 373.854523,314.864990 
	C377.275116,311.361328 380.695709,307.857697 384.722961,304.086578 
	C385.915039,302.864410 387.107117,301.642273 388.877899,300.227692 
	C389.425842,299.642975 389.973755,299.058228 390.953766,298.144470 
	C391.447205,297.623138 391.940643,297.101807 393.109619,296.393066 
	C394.024414,295.436340 394.939240,294.479645 396.489380,292.858490 
	C394.251495,292.959717 393.114777,293.011139 391.324158,292.926270 
	C390.881622,292.962097 390.439087,292.997925 389.640289,292.792847 
	C389.097015,292.880646 388.553772,292.968414 387.075378,292.967987 
	C375.703705,293.049622 364.332062,293.131226 352.459961,292.895325 
	C351.322662,293.005035 350.185364,293.114746 348.119659,293.095032 
	C343.736603,293.127136 339.353546,293.159210 334.574036,292.831146 
	C333.731812,292.967072 332.889587,293.102997 331.106567,293.167664 
	C288.155975,293.175964 245.205338,293.214081 202.254791,293.180298 
	C179.689484,293.162537 161.810837,277.492279 159.689590,255.271317 
	C158.031296,237.899948 164.639160,224.244049 179.757141,214.909866 
	C187.738678,209.981888 196.405365,208.855667 205.532730,208.883102 
	C233.493469,208.967133 261.454834,208.848373 289.996429,209.009552 
	C290.394623,208.942337 290.792847,208.875122 291.870453,208.994568 
	C292.800415,208.926407 293.730377,208.858246 295.491516,209.005737 
	C301.323853,208.945312 307.156189,208.884888 313.652069,209.034027 
	C314.105164,208.964035 314.558289,208.894028 315.746887,208.996170 
	C316.492065,208.913513 317.237274,208.830841 318.878906,208.991241 
	C331.199371,209.634644 342.852325,207.018524 352.293457,199.053146 
	C360.480774,192.145615 367.539520,183.900421 375.716125,175.962097 
	C381.578796,170.265259 387.441467,164.568436 393.932404,158.444168 
	C394.764038,157.378830 395.595673,156.313507 396.768585,154.810974 
	C394.748962,154.810974 393.126068,154.809982 391.503143,154.811111 
	C327.853699,154.855560 264.204254,154.922729 200.554825,154.925766 
	C187.903534,154.926376 175.384842,156.968277 164.202301,162.355682 
	C127.170517,180.196457 105.622253,209.163361 105.102661,251.268326 
	C104.482536,301.519806 146.283798,345.426147 196.534286,346.919312 
	C226.661362,347.814484 256.839935,346.975922 287.917419,347.100098 
	C295.610168,347.052124 303.302917,347.004150 311.920013,347.119202 
z"/>
<path fill="#eec10b" opacity="1.000000" stroke="none" class="logo-fill"
	d="
M286.995361,346.916565 
	C256.839935,346.975922 226.661362,347.814484 196.534286,346.919312 
	C146.283798,345.426147 104.482536,301.519806 105.102661,251.268326 
	C105.622253,209.163361 127.170517,180.196457 164.202301,162.355682 
	C175.384842,156.968277 187.903534,154.926376 200.554825,154.925766 
	C264.204254,154.922729 327.853699,154.855560 391.503143,154.811111 
	C393.126068,154.809982 394.748962,154.810974 396.768585,154.810974 
	C395.595673,156.313507 394.764038,157.378830 393.465302,158.333008 
	C389.205475,158.735916 385.411407,159.240280 381.622772,159.782913 
	C381.328247,159.825104 380.986237,160.076187 380.810822,160.330032 
	C376.793732,166.143845 369.792328,166.291473 364.146240,168.956909 
	C361.623993,170.147629 358.551147,170.171509 355.728455,170.726440 
	C353.434753,171.177322 351.141449,171.630463 348.847992,172.082611 
	C344.796661,170.205658 344.125824,175.862778 341.162506,176.544586 
	C338.235931,174.810013 335.121765,173.350922 334.690430,179.080658 
	C334.651520,179.597870 333.972260,180.194473 333.446655,180.527237 
	C329.395752,183.091888 325.309357,185.600494 321.185974,188.156250 
	C319.829620,188.004700 318.165497,187.818741 316.501404,187.632797 
	C316.651855,189.889893 316.802307,192.147003 316.982330,194.847778 
	C314.134644,190.953537 311.852356,193.455414 309.022247,194.909683 
	C305.418335,196.761566 301.455231,198.456345 297.491974,198.934723 
	C292.091492,199.586578 288.727997,203.021408 289.415955,208.808472 
	C261.454834,208.848373 233.493469,208.967133 205.532730,208.883102 
	C196.405365,208.855667 187.738678,209.981888 179.757141,214.909866 
	C164.639160,224.244049 158.031296,237.899948 159.689590,255.271317 
	C161.810837,277.492279 179.689484,293.162537 202.254791,293.180298 
	C245.205338,293.214081 288.155975,293.175964 331.763397,293.422424 
	C333.270325,293.515198 334.120392,293.353241 334.970490,293.191284 
	C339.353546,293.159210 343.736603,293.127136 348.796631,293.392639 
	C350.635834,293.531128 351.798126,293.372009 352.960388,293.212830 
	C364.332062,293.131226 375.703705,293.049622 387.705078,293.187622 
	C388.888733,293.282745 389.442627,293.158264 389.996552,293.033752 
	C390.439087,292.997925 390.881622,292.962097 391.720337,293.432495 
	C392.222382,294.819305 392.328217,295.699860 392.434052,296.580444 
	C391.940643,297.101807 391.447205,297.623138 390.375427,298.253784 
	C389.297760,299.048767 388.798492,299.734467 388.299194,300.420135 
	C387.107117,301.642273 385.915039,302.864410 384.387695,303.818481 
	C383.657501,302.554962 383.075256,300.659393 382.895325,300.696869 
	C379.114777,301.483643 374.247925,299.499603 372.113007,304.747406 
	C371.643066,305.902557 370.716034,306.871765 370.019470,307.897217 
	C368.436829,307.233948 367.182922,306.708435 366.095276,306.252625 
	C365.456482,307.683380 364.978607,308.753754 364.500702,309.824127 
	C362.757782,308.850311 361.014862,307.876495 358.980133,306.739655 
	C358.622009,307.051910 357.797913,307.468719 357.433960,308.136383 
	C354.906952,312.771790 350.980652,313.977295 345.870178,314.283630 
	C342.002960,314.515472 338.102783,316.387695 334.489166,318.102753 
	C330.004242,320.231384 325.677399,322.762390 321.509003,325.468750 
	C317.467377,328.092804 313.712952,331.159119 309.771912,334.076019 
	C307.536957,331.965454 303.371368,332.287354 301.296234,335.737122 
	C298.094177,341.060242 293.667542,343.171539 287.343689,342.267517 
	C287.212830,344.014099 287.104095,345.465332 286.995361,346.916565 
z"/>
<path fill="#eec10b" opacity="1.000000" stroke="none" class="logo-fill"
	d="
M289.706177,208.909012 
	C288.727997,203.021408 292.091492,199.586578 297.491974,198.934723 
	C301.455231,198.456345 305.418335,196.761566 309.022247,194.909683 
	C311.852356,193.455414 314.134644,190.953537 316.982330,194.847778 
	C316.802307,192.147003 316.651855,189.889893 316.501404,187.632797 
	C318.165497,187.818741 319.829620,188.004700 321.185974,188.156250 
	C325.309357,185.600494 329.395752,183.091888 333.446655,180.527237 
	C333.972260,180.194473 334.651520,179.597870 334.690430,179.080658 
	C335.121765,173.350922 338.235931,174.810013 341.162506,176.544586 
	C344.125824,175.862778 344.796661,170.205658 348.847992,172.082611 
	C351.141449,171.630463 353.434753,171.177322 355.728455,170.726440 
	C358.551147,170.171509 361.623993,170.147629 364.146240,168.956909 
	C369.792328,166.291473 376.793732,166.143845 380.810822,160.330032 
	C380.986237,160.076187 381.328247,159.825104 381.622772,159.782913 
	C385.411407,159.240280 389.205475,158.735916 393.151184,158.546738 
	C387.441467,164.568436 381.578796,170.265259 375.257751,175.790955 
	C373.890076,174.799713 372.980835,173.979584 371.700531,172.824799 
	C368.157959,182.089462 360.227936,183.358475 353.750092,184.881241 
	C351.399811,183.355591 349.779541,182.303833 348.159302,181.252075 
	C347.397797,183.117752 346.636292,184.983459 345.927917,186.719025 
	C343.141449,188.964493 340.177002,191.353394 337.240814,193.719528 
	C336.403076,192.594742 335.072540,190.808258 334.164764,189.589432 
	C328.751129,192.709457 323.748901,195.549637 318.807678,198.492233 
	C318.163696,198.875717 317.420929,199.791855 317.429962,200.451614 
	C317.467834,203.219131 317.774323,205.982971 317.982452,208.748169 
	C317.237274,208.830841 316.492065,208.913513 315.328308,208.644699 
	C314.269348,208.470306 313.628937,208.647385 312.988525,208.824478 
	C307.156189,208.884888 301.323853,208.945312 295.268921,208.537323 
	C295.522736,206.654388 295.999115,205.239868 296.475494,203.825348 
	C295.569153,203.639374 294.287048,202.989456 293.830658,203.359070 
	C292.702118,204.272995 291.853973,205.596390 291.100952,206.877350 
	C290.827515,207.342484 291.143829,208.154282 291.191040,208.807907 
	C290.792847,208.875122 290.394623,208.942337 289.706177,208.909012 
M314.684540,202.143021 
	C314.611755,202.186493 314.538940,202.229965 314.684540,202.143021 
z"/>
<path fill="#eec10b" opacity="1.000000" stroke="none" class="logo-fill"
	d="
M287.456390,347.008331 
	C287.104095,345.465332 287.212830,344.014099 287.343689,342.267517 
	C293.667542,343.171539 298.094177,341.060242 301.296234,335.737122 
	C303.371368,332.287354 307.536957,331.965454 309.771912,334.076019 
	C313.712952,331.159119 317.467377,328.092804 321.509003,325.468750 
	C325.677399,322.762390 330.004242,320.231384 334.489166,318.102753 
	C338.102783,316.387695 342.002960,314.515472 345.870178,314.283630 
	C350.980652,313.977295 354.906952,312.771790 357.433960,308.136383 
	C357.797913,307.468719 358.622009,307.051910 358.980133,306.739655 
	C361.014862,307.876495 362.757782,308.850311 364.500702,309.824127 
	C364.978607,308.753754 365.456482,307.683380 366.095276,306.252625 
	C367.182922,306.708435 368.436829,307.233948 370.019470,307.897217 
	C370.716034,306.871765 371.643066,305.902557 372.113007,304.747406 
	C374.247925,299.499603 379.114777,301.483643 382.895325,300.696869 
	C383.075256,300.659393 383.657501,302.554962 384.084351,303.952209 
	C380.695709,307.857697 377.275116,311.361328 373.240601,314.836975 
	C370.103088,312.595673 368.203796,312.240387 366.764069,316.082550 
	C366.192291,317.608398 364.410675,318.680908 362.727905,320.429413 
	C362.163177,316.897858 361.778809,314.494141 361.244354,311.151947 
	C357.705719,315.035065 355.690063,318.587372 352.640900,320.304474 
	C346.891968,323.541901 340.739197,326.459839 334.390228,328.107971 
	C329.334381,329.420441 327.013428,332.192688 325.200989,336.490479 
	C324.610718,337.890198 322.663147,339.962860 321.734924,339.773560 
	C315.506561,338.503326 313.844482,343.525116 310.995667,346.956146 
	C303.302917,347.004150 295.610168,347.052124 287.456390,347.008331 
M301.510315,338.448669 
	C301.510315,338.448669 301.544159,338.517822 301.510315,338.448669 
z"/>
<path fill="#eec10b" opacity="1.000000" stroke="none" class="logo-fill"
	d="
M311.457825,347.037659 
	C313.844482,343.525116 315.506561,338.503326 321.734924,339.773560 
	C322.663147,339.962860 324.610718,337.890198 325.200989,336.490479 
	C327.013428,332.192688 329.334381,329.420441 334.390228,328.107971 
	C340.739197,326.459839 346.891968,323.541901 352.640900,320.304474 
	C355.690063,318.587372 357.705719,315.035065 361.244354,311.151947 
	C361.778809,314.494141 362.163177,316.897858 362.727905,320.429413 
	C364.410675,318.680908 366.192291,317.608398 366.764069,316.082550 
	C368.203796,312.240387 370.103088,312.595673 372.938232,314.968018 
	C366.363770,322.061249 359.852203,329.426178 352.496460,335.819916 
	C343.442230,343.690002 332.464325,347.232910 320.393250,347.118927 
	C317.569061,347.092285 314.744446,347.117706 311.457825,347.037659 
z"/>
<path fill="#eec10b" opacity="1.000000" stroke="none" class="logo-fill"
	d="
M318.430664,208.869705 
	C317.774323,205.982971 317.467834,203.219131 317.429962,200.451614 
	C317.420929,199.791855 318.163696,198.875717 318.807678,198.492233 
	C323.748901,195.549637 328.751129,192.709457 334.164764,189.589432 
	C335.072540,190.808258 336.403076,192.594742 337.240814,193.719528 
	C340.177002,191.353394 343.141449,188.964493 345.927917,186.719025 
	C346.636292,184.983459 347.397797,183.117752 348.159302,181.252075 
	C349.779541,182.303833 351.399811,183.355591 353.750092,184.881241 
	C360.227936,183.358475 368.157959,182.089462 371.700531,172.824799 
	C372.980835,173.979584 373.890076,174.799713 374.948181,175.933136 
	C367.539520,183.900421 360.480774,192.145615 352.293457,199.053146 
	C342.852325,207.018524 331.199371,209.634644 318.430664,208.869705 
z"/>

</svg>